<?xml version="1.0" standalone="no"?>
<!DOCTYPE svg PUBLIC "-//W3C//DTD SVG 20010904//EN"
 "http://www.w3.org/TR/2001/REC-SVG-20010904/DTD/svg10.dtd">
<svg version="1.0" xmlns="http://www.w3.org/2000/svg"
 width="1280.000000pt" height="1280.000000pt" viewBox="0 0 1280.000000 1280.000000"
 preserveAspectRatio="xMidYMid meet">
<metadata>
Created by potrace 1.15, written by Peter Selinger 2001-2017
</metadata>
<g transform="translate(0.000000,1280.000000) scale(0.100000,-0.100000)"
fill="#000000" stroke="none">
<path d="M5965 12020 c-133 -17 -214 -39 -310 -84 -27 -13 -57 -27 -65 -30
-16 -7 -90 -53 -161 -100 -106 -70 -297 -255 -404 -390 -16 -21 -41 -53 -56
-70 -27 -34 -98 -131 -114 -156 -5 -9 -28 -43 -50 -76 -55 -82 -141 -221 -165
-269 -12 -22 -34 -62 -50 -90 -69 -122 -241 -477 -315 -650 -26 -60 -53 -124
-61 -142 -8 -17 -14 -34 -14 -38 0 -4 -9 -26 -19 -49 -11 -23 -29 -66 -40 -96
-11 -30 -35 -95 -54 -145 -19 -49 -37 -99 -40 -110 -3 -11 -18 -51 -32 -90
-15 -38 -30 -83 -34 -100 l-7 -30 -462 -3 c-417 -2 -462 -4 -462 -18 0 -14
-218 -3237 -325 -4809 -32 -462 -176 -2603 -225 -3320 -11 -159 -22 -320 -25
-357 l-6 -68 3880 0 c3196 0 3881 2 3881 13 0 7 -18 296 -40 643 -22 346 -141
2233 -265 4194 -123 1961 -227 3600 -231 3643 l-6 77 -472 0 -473 0 -35 93
c-20 50 -38 101 -41 112 -8 27 -40 117 -67 185 -12 30 -28 75 -36 100 -8 24
-19 49 -24 54 -6 6 -10 17 -10 26 -1 8 -9 33 -20 55 -11 22 -19 44 -20 48 0 5
-6 23 -14 40 -8 18 -26 61 -41 97 -33 80 -45 108 -80 185 -15 33 -38 83 -50
110 -12 28 -53 113 -91 190 -58 119 -94 186 -204 383 -51 89 -89 150 -150 237
-12 17 -30 44 -41 60 -10 17 -32 46 -47 66 -15 20 -47 62 -71 95 -55 74 -294
313 -351 351 -212 142 -297 182 -480 224 -115 26 -376 8 -464 -32 -19 -9 -34
-8 -68 4 -103 36 -261 52 -373 37z m1023 -467 c77 -47 113 -72 172 -123 106
-90 238 -237 320 -356 88 -128 181 -274 210 -329 9 -16 31 -57 50 -90 77 -140
166 -323 246 -505 47 -107 92 -208 99 -225 8 -16 23 -55 35 -85 23 -58 50
-126 70 -175 7 -16 18 -48 25 -70 7 -22 23 -65 34 -95 12 -30 30 -80 41 -110
10 -30 22 -63 25 -72 7 -17 -2 -18 -103 -18 -96 0 -110 2 -115 18 -3 9 -24 69
-47 132 -23 63 -46 129 -51 147 -5 18 -16 45 -24 60 -8 15 -15 33 -15 40 0 7
-6 27 -14 45 -30 70 -57 138 -102 253 -25 65 -50 126 -54 135 -5 8 -20 44 -35
80 -69 166 -207 453 -290 605 -15 28 -34 63 -43 79 -8 15 -32 56 -53 90 -21
33 -46 75 -55 91 -56 100 -210 314 -312 433 -57 65 -59 73 -14 45z m-1224 -15
c-4 -7 -35 -44 -69 -83 -33 -38 -67 -80 -75 -92 -8 -11 -36 -48 -62 -81 -26
-33 -54 -73 -63 -89 -15 -26 -30 -48 -85 -128 -115 -163 -343 -599 -475 -905
-77 -178 -98 -231 -160 -390 -31 -80 -61 -156 -66 -170 -6 -13 -23 -63 -39
-110 -16 -47 -33 -97 -39 -110 -5 -14 -12 -37 -15 -52 l-6 -28 -114 0 -114 0
30 83 c52 143 161 424 184 472 7 17 28 64 45 105 119 281 328 685 453 876 158
241 255 364 391 499 115 113 310 255 279 203z m711 -69 c116 -88 278 -263 375
-405 70 -102 132 -196 148 -225 110 -190 143 -252 202 -369 81 -163 127 -261
169 -360 18 -41 38 -88 46 -105 7 -16 23 -55 35 -85 12 -30 31 -73 41 -96 11
-23 19 -45 19 -49 0 -4 6 -21 14 -38 7 -18 23 -59 35 -92 13 -33 29 -76 36
-95 7 -19 19 -53 28 -75 8 -22 24 -65 36 -95 11 -31 21 -61 21 -68 0 -9 -284
-12 -1329 -12 l-1329 0 13 43 c23 73 92 254 127 334 10 23 18 48 18 55 0 8 4
18 9 24 5 5 21 41 36 79 15 39 39 95 52 125 14 30 33 73 43 95 88 199 220 462
303 605 44 78 134 216 227 354 125 184 337 402 483 496 48 31 47 32 142 -41z"/>
</g>
</svg>
